<?xml version="1.0" encoding="utf-8"?>
<!-- Generator: Adobe Illustrator 27.5.0, SVG Export Plug-In . SVG Version: 6.00 Build 0)  -->
<svg version="1.1" xmlns="http://www.w3.org/2000/svg" xmlns:xlink="http://www.w3.org/1999/xlink" x="0px" y="0px"
	 viewBox="0 0 750 500" style="enable-background:new 0 0 750 500;" xml:space="preserve">
<g id="BACKGROUND">
	<rect style="fill:#FFFFFF;" width="750" height="500"/>
</g>
<g id="OBJECTS">
	<g>
		<polygon style="opacity:0.35;fill:#4E8FB7;" points="81.436,429.39 620.86,432.081 665.242,365.926 127.215,365.926 		"/>
		<g>
			<g>
				<g>
					<g>
						<rect x="73.705" y="419.72" style="fill:#70B2DD;" width="21.15" height="1.35"/>
					</g>
				</g>
				<g>
					<g>
						<rect x="79.63" y="411.55" style="fill:#70B2DD;" width="21.15" height="1.35"/>
					</g>
				</g>
				<g>
					<g>
						<rect x="85.555" y="403.381" style="fill:#70B2DD;" width="21.15" height="1.35"/>
					</g>
				</g>
				<g>
					<g>
						<rect x="91.48" y="395.213" style="fill:#70B2DD;" width="21.15" height="1.35"/>
					</g>
				</g>
				<g>
					<g>
						<rect x="97.405" y="387.043" style="fill:#70B2DD;" width="21.151" height="1.35"/>
					</g>
				</g>
				<g>
					<g>
						<rect x="103.33" y="378.874" style="fill:#70B2DD;" width="21.15" height="1.35"/>
					</g>
				</g>
				<g>
					<g>
						<rect x="109.255" y="370.705" style="fill:#70B2DD;" width="21.151" height="1.35"/>
					</g>
				</g>
			</g>
			<g>
				<g>
					<g>
						<rect x="619.594" y="419.72" style="fill:#70B2DD;" width="21.15" height="1.35"/>
					</g>
				</g>
				<g>
					<g>
						<rect x="625.519" y="411.55" style="fill:#70B2DD;" width="21.15" height="1.35"/>
					</g>
				</g>
				<g>
					<g>
						<rect x="631.444" y="403.381" style="fill:#70B2DD;" width="21.15" height="1.35"/>
					</g>
				</g>
				<g>
					<g>
						<rect x="637.369" y="395.213" style="fill:#70B2DD;" width="21.15" height="1.35"/>
					</g>
				</g>
				<g>
					<g>
						<rect x="643.294" y="387.043" style="fill:#70B2DD;" width="21.151" height="1.35"/>
					</g>
				</g>
				<g>
					<g>
						<rect x="649.219" y="378.874" style="fill:#70B2DD;" width="21.15" height="1.35"/>
					</g>
				</g>
				<g>
					<g>
						<rect x="655.144" y="370.705" style="fill:#70B2DD;" width="21.151" height="1.35"/>
					</g>
				</g>
			</g>
			<polygon style="fill:#ABDAF7;" points="665.242,365.926 661.799,370.705 660.827,372.055 655.899,378.872 654.927,380.222 
				650.013,387.04 649.041,388.39 644.114,395.208 643.142,396.558 638.227,403.375 637.255,404.725 632.328,411.556 
				631.356,412.906 626.428,419.724 625.456,421.074 619.462,429.39 81.436,429.39 87.43,421.074 88.402,419.724 93.33,412.906 
				94.302,411.556 99.229,404.725 100.201,403.375 105.115,396.558 106.087,395.208 111.015,388.39 111.987,387.04 116.901,380.222 
				117.873,378.872 122.801,372.055 123.773,370.705 127.215,365.926 			"/>
			<polygon style="fill:#70B2DD;" points="205.746,365.926 161.142,429.39 127.742,429.39 164.409,377.225 172.347,365.926 			"/>
			<polygon style="fill:#70B2DD;" points="284.615,365.926 265.31,393.385 240.01,429.39 206.597,429.39 235.758,387.904 
				251.202,365.926 			"/>
			<polygon style="fill:#70B2DD;" points="368.654,365.926 344.975,399.609 324.049,429.39 290.636,429.39 312.615,398.124 
				335.241,365.926 			"/>
			<polygon style="fill:#70B2DD;" points="455.016,365.926 432.429,398.07 410.41,429.39 376.997,429.39 397.896,399.649 
				421.602,365.926 			"/>
			<polygon style="fill:#70B2DD;" points="533.87,365.926 520.883,384.394 489.266,429.39 455.866,429.39 481.422,393.021 
				500.471,365.926 			"/>
			<polygon style="fill:#70B2DD;" points="617.91,365.926 602.344,388.079 573.305,429.39 539.892,429.39 569.255,387.621 
				584.496,365.926 			"/>
		</g>
		<path style="opacity:0.35;fill:#4E8FB7;" d="M631.531,365.926H209.698h-0.9h-72.744c-3.594,1.391-5.648,3.019-5.648,4.749
			c0,4.766,15.505,8.718,35.795,9.447c2.177,0.068,4.395,0.102,6.674,0.102c14.384,0,27.091-1.609,34.774-4.07
			c4.104,4.321,13.92,8.316,28.108,11.75c8.411,2.039,18.36,3.888,29.552,5.481c14,1.998,29.957,3.605,47.305,4.739
			c10.328,0.675,21.155,1.174,32.36,1.485c8.829,0.257,17.915,0.378,27.163,0.378c8.762,0,17.361-0.122,25.758-0.337
			c11.988-0.31,23.544-0.851,34.534-1.58c18.077-1.188,34.615-2.902,48.993-5.049c16.214-2.403,29.673-5.319,39.461-8.627
			c4.833-1.62,8.775-3.335,11.718-5.117c5.67,3.888,19.292,6.966,36.653,8.343c6.318,0.5,13.122,0.77,20.223,0.77
			c4.415,0,8.721-0.108,12.866-0.311c26.812-1.283,46.873-6.534,46.873-12.825C649.217,371.609,642.453,368.302,631.531,365.926z"/>
		<g>
			<g>
				<polygon style="fill:#ABDAF7;" points="426.567,156.24 376.561,158.602 378.489,92.788 				"/>
				<rect x="378.489" y="92.788" style="fill:#FFFFFF;" width="48.078" height="63.451"/>
				<rect x="383.591" y="98.188" style="fill:#CEE8F4;" width="37.874" height="52.426"/>
			</g>
			<g>
				<polygon style="fill:#ABDAF7;" points="480.556,121.776 439.45,123.951 441.259,92 				"/>
				
					<rect x="446.019" y="87.239" transform="matrix(-1.836970e-16 1 -1 -1.836970e-16 567.7958 -354.0193)" style="fill:#FFFFFF;" width="29.777" height="39.298"/>
				
					<rect x="450.252" y="91.927" transform="matrix(-1.836970e-16 1 -1 -1.836970e-16 568.1656 -353.7888)" style="fill:#CEE8F4;" width="21.45" height="30.522"/>
			</g>
			<g>
				<polygon style="fill:#ABDAF7;" points="480.556,157.028 439.45,159.165 441.259,127.251 				"/>
				
					<rect x="446.019" y="122.491" transform="matrix(-1.836970e-16 1 -1 -1.836970e-16 603.047 -318.7681)" style="fill:#FFFFFF;" width="29.777" height="39.298"/>
				
					<rect x="450.252" y="127.178" transform="matrix(-1.836970e-16 1 -1 -1.836970e-16 603.4167 -318.5376)" style="fill:#CEE8F4;" width="21.45" height="30.522"/>
			</g>
			<g>
				<circle style="fill:#CEE8F4;" cx="233.433" cy="122.578" r="19.8"/>
				<circle style="fill:#FFFFFF;" cx="235.036" cy="120.975" r="19.8"/>
				<circle style="fill:#CEE8F4;" cx="235.036" cy="120.975" r="15.538"/>
			</g>
		</g>
		<g>
			<g>
				<path style="fill:#70B2DD;" d="M166.743,286.183c-0.666-1.241-3.141-22.685-7.866-30.751c-4.725-8.066-7.538,12.86-7.538,12.86
					s-8.663-37.414-14.738-36.257c-6.075,1.156,3.094,38.282,3.094,38.282s-5.569-10.962-9.169-10.431
					c-3.6,0.531,2.7,24.382,2.7,24.382l10.8,25.201l22.723-8.451L166.743,286.183z"/>
				<path style="fill:#F0F8FF;" d="M156.147,308.677"/>
				<path style="fill:#F0F8FF;" d="M140.877,251.866"/>
				<path style="fill:#ABDAF7;" d="M156.146,309.352c-0.33,0-0.618-0.241-0.667-0.578c-2.468-16.964-15.117-56.306-15.245-56.701
					c-0.114-0.355,0.081-0.736,0.436-0.849c0.355-0.116,0.736,0.08,0.85,0.435c0.128,0.397,12.812,39.847,15.295,56.92
					c0.054,0.369-0.202,0.712-0.571,0.766C156.211,309.349,156.179,309.352,156.146,309.352z"/>
				<path style="fill:#4E8FB7;" d="M155.727,306.829c0,0-4.5-35.612,0.9-38.537c5.4-2.925,9.225,10.969,9.225,10.969
					s5.963-45.845,12.319-47.195c6.356-1.35,4.106,41.401,4.106,41.401s3.591-9.9,10.346-7.875
					c6.755,2.025-10.571,39.601-10.571,39.601l-5.175,23.405h-16.2L155.727,306.829z"/>
				<g>
					<line style="fill:#F0F8FF;" x1="174.078" y1="266.267" x2="169.902" y2="328.597"/>
					<path style="fill:#70B2DD;" d="M169.903,329.272c-0.015,0-0.03,0-0.046-0.001c-0.372-0.025-0.654-0.347-0.629-0.719
						l4.175-62.331c0.026-0.372,0.355-0.672,0.718-0.629c0.372,0.025,0.654,0.347,0.629,0.719l-4.175,62.331
						C170.552,328.999,170.255,329.272,169.903,329.272z"/>
				</g>
				<path style="fill:#70B2DD;" d="M166.75,328.597c-0.223-0.736,5.177-31.786,10.409-37.693c5.231-5.906,7.425,11.306,7.425,11.306
					s11.475-23.625,16.369-22.951c4.894,0.675-6.75,29.026-6.75,29.026s6.244-6.413,10.125-2.362
					c3.881,4.05-17.213,22.674-17.213,22.674H166.75z"/>
				<g>
					<path style="fill:#F0F8FF;" d="M192.623,296.811c0,0-8.377,20.709-14.452,31.786"/>
					<path style="fill:#ABDAF7;" d="M178.171,329.272c-0.109,0-0.221-0.026-0.324-0.083c-0.327-0.179-0.447-0.589-0.268-0.916
						c5.987-10.916,14.335-31.508,14.419-31.715c0.14-0.345,0.534-0.509,0.879-0.373c0.345,0.14,0.512,0.534,0.372,0.879
						c-0.084,0.207-8.461,20.873-14.486,31.858C178.641,329.146,178.409,329.272,178.171,329.272z"/>
				</g>
				<path style="fill:#ABDAF7;" d="M163.321,327.524c0,0-8.438-32.569-13.331-38.645c-4.894-6.075-5.4,11.138-5.4,11.138
					s-12.319-31.051-23.794-39.151c-11.475-8.1,8.606,36.62,8.606,36.62s-13.163-10.969-14.513-4.556
					c-1.35,6.413,29.363,34.594,29.363,34.594H163.321z"/>
				<path style="fill:#CEE6F2;" d="M151.937,327.21c-13.833-26.332-23.173-48-23.266-48.216c-0.148-0.344-0.546-0.504-0.887-0.353
					c-0.343,0.146-0.501,0.543-0.354,0.886c0.093,0.216,9.452,21.93,23.31,48.311c0.121,0.229,0.356,0.361,0.599,0.361
					c0.105,0,0.213-0.025,0.313-0.078C151.983,327.949,152.111,327.54,151.937,327.21z"/>
			</g>
			<path style="fill:#70B2DD;" d="M192.623,327.247l-1.458,9.896l-3.753,25.435c-0.756,5.076-4.725,8.802-9.383,8.802h-21.736
				c-4.577,0-8.492-3.591-9.342-8.546l-4.388-25.691l-1.688-9.896H192.623z"/>
			<polygon style="fill:#ABDAF7;" points="192.623,327.247 191.165,337.143 142.564,337.143 140.877,327.247 			"/>
		</g>
		<g>
			<polygon style="fill:#CEE8F4;" points="557.664,143.527 503.494,143.527 513.62,102.688 546.358,102.688 			"/>
			<rect x="526.566" y="143.527" style="fill:#70B2DD;" width="5.457" height="223.803"/>
			<path style="fill:#ABDAF7;" d="M509.691,367.33h38.922l-16.68-6.175c-1.703-0.63-3.574-0.635-5.28-0.013L509.691,367.33z"/>
		</g>
		<g>
			<path style="fill:#70B2DD;" d="M630.141,268.19V371.38h-10.463v-14.27h-67.164v14.27h-9.788V268.19
				c0-3.97,3.219-7.189,7.189-7.189h73.036C626.922,261.001,630.141,264.22,630.141,268.19z"/>
			<g>
				<rect x="552.514" y="272.09" style="fill:#4E8FB7;" width="67.164" height="18.682"/>
				<path style="fill:#70B2DD;" d="M588.937,281.431c0,1.569-1.272,2.841-2.841,2.841c-1.569,0-2.841-1.272-2.841-2.841
					c0-1.569,1.272-2.841,2.841-2.841C587.665,278.59,588.937,279.862,588.937,281.431z"/>
				<rect x="552.514" y="298.265" style="fill:#4E8FB7;" width="67.164" height="18.682"/>
				<path style="fill:#70B2DD;" d="M588.937,307.606c0,1.569-1.272,2.841-2.841,2.841c-1.569,0-2.841-1.272-2.841-2.841
					c0-1.569,1.272-2.841,2.841-2.841C587.665,304.765,588.937,306.037,588.937,307.606z"/>
				<rect x="552.514" y="324.44" style="fill:#4E8FB7;" width="67.164" height="18.682"/>
				<path style="fill:#70B2DD;" d="M588.937,333.78c0,1.569-1.272,2.841-2.841,2.841c-1.569,0-2.841-1.272-2.841-2.841
					c0-1.569,1.272-2.841,2.841-2.841C587.665,330.94,588.937,332.212,588.937,333.78z"/>
			</g>
		</g>
		<g>
			<g>
				<path style="fill:#70B2DD;" d="M508.69,256.816c0,0-36.629-52.314-74.288-35.776c-26.72,11.734-46.718,18.434-82.431-5.633
					c-35.712-24.067-89.289-46.5-122.802,39.868v59.225h242.891L508.69,256.816z"/>
				<rect x="245.608" y="294.28" style="fill:#70B2DD;" width="235.085" height="77.1"/>
				<rect x="242.458" y="294.28" style="fill:#4E8FB7;" width="247.955" height="22.667"/>
				<rect x="245.608" y="359.526" style="fill:#ABDAF7;" width="235.085" height="11.853"/>
				<path style="fill:#ABDAF7;" d="M256.909,371.38h-23.214c-9.547,0-17.287-7.74-17.287-17.287v-15.636
					c0-16.63-4.397-32.964-12.745-47.346l-3.84-6.339c-5.903-9.745-3.151-22.405,6.265-28.82v0
					c10.348-7.049,24.509-3.766,30.699,7.117v0c13.188,23.184,20.122,49.398,20.122,76.071V371.38z"/>
				<path style="fill:#ABDAF7;" d="M478.595,371.38h23.214c9.547,0,17.287-7.74,17.287-17.287v-15.636
					c0-16.63,4.397-32.964,12.746-47.346l3.84-6.339c5.903-9.745,3.151-22.405-6.265-28.82l0,0
					c-10.347-7.049-24.508-3.766-30.699,7.117v0c-13.188,23.184-20.122,49.398-20.122,76.071V371.38z"/>
				<polygon style="opacity:0.35;fill:#4E8FB7;" points="309.341,371.38 321.154,371.38 351.192,325.161 407.185,320.19 
					333.473,320.19 				"/>
				<path style="opacity:0.35;fill:#4E8FB7;" d="M333.641,265.38l-47.94,40.921c-13.056,0-23.64,1.835-23.64,4.1
					c0,2.264,10.584,4.1,23.64,4.1c13.056,0,23.64-1.835,23.64-4.1c0-1.427-4.209-2.682-10.586-3.417l39.106-25.362l9.225,12.656
					h27.563L333.641,265.38z"/>
				<polygon style="fill:none;stroke:#70B2DD;stroke-width:1.35;stroke-miterlimit:10;" points="388.504,235.8 397.977,270.992 
					423.37,265.38 				"/>
			</g>
			<g>
				<path style="fill:#CEE8F4;" d="M445.018,307.78c0,0,5.012,8.1,11.028,11.644c6.016,3.544,7.366,12.15,11.754,8.438
					c4.388-3.713,0.337-9.457,7.594-15.698c7.256-6.24,14.513-27.197,18.732-38.741c4.219-11.544,11.306-24.032,17.382-25.382
					c6.075-1.35,13.5-2.7,6.244-7.594c-7.256-4.894-9.45-16.032-21.938-21.432c-12.488-5.4-28.688-0.506-32.738-2.363
					c-4.05-1.856-8.903-2.363-5.886,3.713c3.017,6.075-9.553,15.496-16.434,26.39C433.874,257.651,402.999,271.667,445.018,307.78z"
					/>
				<g>
					<path style="fill:#F49D8C;" d="M308.581,290.057l-7.007,10.301h-0.014l-2.173,3.2c0,0,1.255,7.844-1.444,9.194
						c-2.7,1.35-10.544-1.512-20.669,1.107c-10.125,2.619-15.012-3.456-15.863-5.913c-0.837-2.444,3.038-2.268,9.531-1.769
						c6.507,0.5,17.645-6.413,17.645-6.413l1.796-3.308l6.305-11.624L308.581,290.057z"/>
					<path style="fill:#D9E0E8;" d="M299.388,303.558c0,0,1.255,7.844-1.444,9.194c-2.7,1.35-10.544-1.512-20.669,1.107
						c-10.125,2.619-15.012-3.456-15.863-5.913c-0.837-2.444,3.038-2.268,9.531-1.769c6.507,0.5,17.645-6.413,17.645-6.413
						l1.796-3.308c2.079,1.701,5.819,3.902,11.178,3.902L299.388,303.558z"/>
					<path style="fill:#2256B2;" d="M390.197,265.595c0,0-42.155-23.405-54.53-23.63c-12.375-0.225-42.384,43.783-42.384,43.783
						l15.721,8.531l27.732-20.857l24.301,17.349l36.676-5.605L390.197,265.595z"/>
				</g>
				<g>
					<path style="fill:#FEB19E;" d="M311.62,369.148l-1.89,5.238c0,3.375,3.375,8.316,0,10.908
						c-3.375,2.592-6.858,4.495-14.513,7.992c-7.641,3.483-10.233,1.228-14.054,0c-3.834-1.242-3.159-4.725,2.025-7.425
						c5.171-2.7,14.175-11.934,14.175-11.934l1.688-7.385l2.7-11.853l14.054,2.93L311.62,369.148z"/>
					<path style="fill:#D9E0E8;" d="M309.73,374.386c0,3.375,3.375,8.316,0,10.908c-3.375,2.592-6.858,4.495-14.513,7.992
						c-7.641,3.483-10.233,1.228-14.054,0c-3.834-1.242-3.159-4.725,2.025-7.425c5.171-2.7,14.175-11.934,14.175-11.934l1.688-7.385
						c3.308,1.215,8.276,2.7,12.569,2.605L309.73,374.386z"/>
					<path style="fill:#3471EA;" d="M387.868,283.512c0,0-50.739,6.886-62.721,12.793c-11.982,5.906-28.463,64.464-28.463,64.464
						s10.575,5.625,20.475,2.7l22.05-42.188l68.05-0.949L387.868,283.512z"/>
				</g>
				<g>
					<path style="fill:#F49D8C;" d="M375.408,224.838c0,0,7.509,8.775,12.15,8.522l7.425-3.291l-3.234-16.899L375.408,224.838z"/>
					<g>
						<path style="fill:#4E8FB7;" d="M375.408,201.128c0,0,4.134-9.703,15.441-5.569l9.197,21.516c0,0-9.956-0.928-13.753,6.919
							l-2.25,1.378l-1.604-2.559L375.408,201.128z"/>
						<path style="fill:#4E8FB7;" d="M370.252,203.363c0,0-11.326-3.95-14.701,8.622l12.319,21.769
							c4.149-4.784,8.818-7.736,14.316-7.763l1.856-0.619L370.252,203.363z"/>
						<polygon style="fill:#BAD4DD;" points="384.942,222.813 381.061,224.416 370.345,201.297 374.058,199.947 						"/>
						<path style="fill:#CEE8F4;" d="M370.534,201.703c0,0-11.326-3.95-14.701,8.622l12.319,21.769c0,0,2.785-6.413,12.91-7.678
							L370.534,201.703z"/>
						<path style="fill:#CEE8F4;" d="M374.058,199.947c0,0,4.134-9.703,15.441-5.569l9.197,21.516c0,0-9.956-0.928-13.753,6.919
							L374.058,199.947z"/>
					</g>
					<path style="fill:#FEB19E;" d="M389.077,233.36c0,0-2.109-8.606,1.772-12.319c0,0-0.844-7.678,1.688-8.438
						s4.006,12.066,2.447,17.466L389.077,233.36z"/>
				</g>
				<g>
					<linearGradient id="SVGID_1_" gradientUnits="userSpaceOnUse" x1="442.2852" y1="301.3785" x2="417.5347" y2="225.7771">
						<stop  offset="0" style="stop-color:#F79239"/>
						<stop  offset="1" style="stop-color:#F7C759"/>
					</linearGradient>
					<path style="fill:url(#SVGID_1_);" d="M481.3,276.554c-2.727,10.517-13.217,22.626-25.988,30.673
						c-2.187,1.377-4.455,2.646-6.75,3.753c-5.13,2.497-11.961,4.455-18.806,5.967c-14.081,3.119-21.195,4.165-21.195,4.165
						c-31.213-20.25-18.365-55.516-18.365-55.516c6.926,2.025,16.353-0.166,16.353-0.166
						c-12.501-10.125-19.926-31.226-19.926-31.226l10.476-6.251c11.3,14.85,24.462,27.325,24.462,27.325s6.075-1.998,17.888-7.911
						c11.813-5.913,22.572-1.283,22.572-1.283C479.194,254.751,484.5,264.242,481.3,276.554z"/>
					<path style="opacity:0.5;fill:#F6613A;" d="M458.347,277.533c0,0-10.348,13.368-36.111-3.001l24.382,25.26l15.404-4.95
						L458.347,277.533z"/>
					<path style="opacity:0.5;fill:#F6613A;" d="M455.312,307.213v0.014c-2.187,1.377-4.455,2.646-6.75,3.753
						c-5.13,2.497-11.961,4.455-18.806,5.967l-18.347-28.067c-8.897,0.783-13.433-7.574-13.433-7.574l16.052-3.672L455.312,307.213z
						"/>
					<path style="opacity:0.5;fill:#F6613A;" d="M409.633,261.945c0,0,14.59-0.949,32.497-10.632c0,0-13.218,12.057-26.287,14.462
						l-5.756,2.855L409.633,261.945z"/>
				</g>
				<g>
					
						<linearGradient id="SVGID_00000119805333360825458830000003233761579912494012_" gradientUnits="userSpaceOnUse" x1="479.3786" y1="235.4873" x2="480.2845" y2="209.214">
						<stop  offset="0" style="stop-color:#3F2323"/>
						<stop  offset="1" style="stop-color:#5E3434"/>
					</linearGradient>
					<path style="fill:url(#SVGID_00000119805333360825458830000003233761579912494012_);" d="M463.735,227.172
						c-0.21-0.562-1.083-2.419,0-5.344c0,0-2.517-4.613-1.448-7.931c1.069-3.319,1.856,0.675,7.425,0.731
						c0,0-1.744-2.025-1.294-4.163c0.45-2.137,3.038,3.038,7.313,1.744c4.275-1.294,21.544-0.619,18.282,17.044
						c0,0,2.363-0.113,3.263,3.938c0.9,4.05-1.913,0.675-1.913,0.675s1.462,6.638-3.825,10.013
						c-5.288,3.375-11.698,4.931-13.949,8.26L463.735,227.172z"/>
					<path style="fill:#FEB19E;" d="M481.3,246.016c-3.632,3.794-5.4,11.138-5.4,11.138c-2.525,3.118-9.707,5.4-15.863,2.525
						c-4.131-1.917-5.009-6.521-2.848-7.574c0.068-0.041,0.148-0.068,0.229-0.094c2.457-0.851,4.131-3.713,4.131-3.713l19.143-2.214
						L481.3,246.016z"/>
					<path style="fill:#FF856A;" d="M480.693,246.084c-0.378,0.527-0.878,1.094-1.499,1.728
						c-11.448,11.624-19.224,6.845-22.005,4.293c0.068-0.041,0.148-0.068,0.229-0.094c2.457-0.851,4.131-3.713,4.131-3.713
						L480.693,246.084z"/>
					<path style="fill:#FEB19E;" d="M465.775,223.628c0,0-7.2,11.25-7.425,19.913s14.513,10.913,22.95,2.475
						c0,0,4.163,1.125,5.738-2.475c1.575-3.6-1.856-4.275-5.063-2.194c0,0-2.616-2.841,1.013-8.156c0,0-2.7,0.422-7.256-1.688
						c-4.556-2.109,1.181-3.038,1.181-3.038S469.91,229.507,465.775,223.628z"/>
				</g>
				<g>
					<g>
						<path style="fill:#FFFFFF;" d="M399.376,266.013c-0.029,0-0.719-0.008-1.197-0.642c-0.537-0.715-0.575-1.892-0.112-3.502
							c1.001-3.474-1.428-5.797-1.453-5.819c-0.136-0.128-0.144-0.342-0.016-0.477c0.127-0.137,0.343-0.142,0.477-0.016
							c0.113,0.105,2.754,2.633,1.64,6.5c-0.5,1.736-0.274,2.541,0.003,2.908c0.274,0.363,0.654,0.373,0.658,0.373
							c0.186,0,0.337,0.152,0.337,0.337C399.714,265.862,399.562,266.013,399.376,266.013z"/>
						<path style="fill:#FFFFFF;" d="M402.408,260.74c-0.029,0-0.058-0.004-0.087-0.012c-0.05-0.013-0.497-0.145-0.755-0.668
							c-0.283-0.575-0.219-1.368,0.194-2.36c0.34-0.823-0.214-1.606-0.856-2.514c-0.821-1.159-1.842-2.601-0.629-4.341
							c0.567-0.814,0.786-1.59,0.65-2.306c-0.194-1.019-1.052-1.602-1.06-1.607c-0.156-0.104-0.198-0.312-0.095-0.468
							c0.103-0.153,0.31-0.196,0.467-0.096c0.044,0.029,1.098,0.734,1.349,2.036c0.175,0.904-0.08,1.856-0.757,2.827
							c-0.941,1.351-0.181,2.427,0.625,3.566c0.695,0.982,1.413,1.996,0.928,3.163c-0.415,1.002-0.344,1.533-0.211,1.802
							c0.123,0.249,0.322,0.315,0.324,0.316c0.181,0.048,0.287,0.232,0.239,0.413C402.694,260.64,402.557,260.74,402.408,260.74z"/>
						<path style="fill:#FFFFFF;" d="M407.049,265.38c-0.034,0-0.067-0.005-0.102-0.016c-0.03-0.009-0.755-0.245-1.103-0.973
							c-0.256-0.538-0.241-1.184,0.047-1.918c0.691-1.767,0.45-2.626-1.077-3.831c-0.146-0.116-0.171-0.328-0.055-0.475
							c0.119-0.146,0.331-0.169,0.475-0.055c1.764,1.394,2.088,2.555,1.285,4.606c-0.215,0.551-0.239,1.014-0.069,1.375
							c0.218,0.463,0.697,0.626,0.703,0.628c0.175,0.059,0.273,0.249,0.216,0.426C407.323,265.289,407.191,265.38,407.049,265.38z"
							/>
					</g>
					<path style="fill:#CEE8F4;" d="M405.882,283.724l-1.29,0.199c-3.838,0.593-7.43-2.038-8.022-5.876l-2.125-13.757l15.188-2.346
						l2.125,13.757C412.351,279.54,409.72,283.132,405.882,283.724z"/>
					<path style="fill:#FEB19E;" d="M421.202,275.018l-3.015-2.451c0,0-0.675-8.438-6.075-9.113
						c-1.964-0.246-2.291-0.039-2.291-0.039l0.604,3.653c0,0-3.375,1.448-5.963,0.773c-2.587-0.675-3.263-0.45-2.587,3.938
						c0.675,4.388,4.16,12.486,10.8,9.225l2.647,2.508L421.202,275.018z"/>
					
						<linearGradient id="SVGID_00000097470728598257025670000000406329648680344489_" gradientUnits="userSpaceOnUse" x1="452.0531" y1="298.1807" x2="427.3026" y2="222.5794">
						<stop  offset="0" style="stop-color:#F79239"/>
						<stop  offset="1" style="stop-color:#F7C759"/>
					</linearGradient>
					<path style="fill:url(#SVGID_00000097470728598257025670000000406329648680344489_);" d="M450.925,292.423
						c-9.294-4.346-18.892-10.899-28.688-18.9l-7.594,10.969c0,0,26.95,31.219,41.404,27.338c9.718-2.609,17.509-17.271,21.572-26.6
						c2.456-5.639,0.146-12.336-5.404-14.986c-0.803-0.383-1.608-0.658-2.389-0.771c-1.14-0.165-2.284-0.101-3.385,0.107
						c-4.411,0.832-7.758,4.394-8.807,8.758C456.788,281.85,454.945,286.939,450.925,292.423z"/>
				</g>
			</g>
		</g>
	</g>
</g>
</svg>
