<svg width="918" height="521" viewBox="0 0 918 521" fill="none" xmlns="http://www.w3.org/2000/svg">
<g clip-path="url(#clip0_77_909)">
<path d="M896.33 439.295C893.013 412.617 876.479 386.331 851.036 377.649C861.07 405.109 861.068 435.232 851.03 462.69C847.12 473.265 841.671 484.62 845.348 495.279C847.636 501.911 853.234 506.985 859.491 510.157C865.748 513.33 872.692 514.842 879.55 516.324L880.899 517.44C891.785 492.859 899.648 465.973 896.33 439.295Z" fill="#F0F0F0"/>
<path d="M850.784 378.154C865.6 394.756 874.809 415.604 877.103 437.738C877.681 442.494 877.506 447.311 876.584 452.013C875.538 456.564 873.292 460.752 870.081 464.141C867.149 467.362 863.778 470.316 861.681 474.194C860.637 476.194 860.027 478.393 859.892 480.645C859.757 482.898 860.1 485.153 860.898 487.264C862.75 492.575 866.4 496.904 870.116 501.014C874.242 505.576 878.6 510.25 880.354 516.299C880.567 517.032 881.691 516.659 881.479 515.927C878.428 505.403 868.212 499.426 863.34 489.947C861.066 485.524 860.112 480.389 862.243 475.72C864.107 471.637 867.581 468.587 870.577 465.352C873.759 462.091 876.094 458.101 877.378 453.73C878.536 449.09 878.896 444.288 878.443 439.527C877.594 428.794 875.063 418.261 870.942 408.314C866.301 396.935 859.749 386.435 851.568 377.266C851.061 376.698 850.28 377.591 850.784 378.154Z" fill="white"/>
<path d="M876.784 430.567C880.445 429.678 883.671 427.517 885.886 424.469C888.101 421.421 889.16 417.685 888.874 413.928C888.814 413.168 887.63 413.227 887.691 413.987C887.963 417.485 886.976 420.965 884.908 423.799C882.84 426.633 879.826 428.635 876.412 429.442C875.67 429.619 876.046 430.743 876.784 430.567Z" fill="white"/>
<path d="M871.782 462.704C865.169 458.755 860.288 452.46 858.111 445.072C857.896 444.34 856.771 444.712 856.986 445.443C859.265 453.127 864.359 459.668 871.249 463.762C871.906 464.152 872.436 463.091 871.782 462.704Z" fill="white"/>
<path d="M865.203 398.057C863.858 398.697 862.375 398.992 860.888 398.916C859.401 398.841 857.956 398.397 856.682 397.625C856.03 397.227 855.502 398.288 856.149 398.683C857.56 399.53 859.157 400.018 860.8 400.105C862.443 400.192 864.082 399.875 865.574 399.183C865.72 399.129 865.841 399.022 865.911 398.883C865.981 398.744 865.995 398.583 865.951 398.434C865.901 398.286 865.794 398.162 865.654 398.092C865.514 398.021 865.352 398.009 865.203 398.057Z" fill="white"/>
<path d="M773.483 425.3C773.883 425.56 774.283 425.82 774.683 426.09C780.041 429.614 785.105 433.566 789.823 437.91C790.193 438.24 790.563 438.58 790.923 438.92C802.178 449.506 811.371 462.089 818.033 476.03C820.679 481.58 822.898 487.323 824.673 493.21C827.123 501.34 829.133 510.35 833.983 517C834.481 517.699 835.022 518.367 835.603 519H879.433C879.533 518.95 879.633 518.91 879.733 518.86L881.483 518.94C881.413 518.63 881.333 518.31 881.263 518C881.223 517.82 881.173 517.64 881.133 517.46C881.103 517.34 881.073 517.22 881.053 517.11C881.043 517.07 881.033 517.03 881.023 517C881.003 516.89 880.973 516.79 880.953 516.69C880.513 514.9 880.059 513.11 879.593 511.32C879.593 511.31 879.593 511.31 879.583 511.3C875.993 497.67 871.233 484.22 864.583 471.92C864.383 471.55 864.183 471.17 863.963 470.8C860.935 465.272 857.46 460.001 853.573 455.04C851.436 452.33 849.163 449.73 846.763 447.25C840.549 440.854 833.368 435.475 825.483 431.31C809.763 423.01 791.563 419.83 774.763 424.9C774.333 425.03 773.913 425.16 773.483 425.3Z" fill="#F0F0F0"/>
<path d="M773.581 425.856C795.407 430.191 815.312 441.293 830.469 457.585C833.794 461.034 836.555 464.986 838.649 469.295C840.554 473.558 841.282 478.254 840.759 482.894C840.357 487.23 839.444 491.619 840.104 495.978C840.475 498.204 841.312 500.326 842.561 502.206C843.809 504.085 845.441 505.68 847.349 506.885C852.025 510.01 857.546 511.27 862.987 512.313C869.028 513.472 875.322 514.58 880.364 518.354C880.975 518.811 881.649 517.836 881.039 517.38C872.266 510.814 860.51 512.192 850.913 507.557C846.435 505.394 842.582 501.869 841.472 496.858C840.502 492.476 841.44 487.949 841.884 483.562C842.461 479.043 841.923 474.451 840.317 470.188C838.449 465.786 835.845 461.734 832.617 458.206C825.477 450.148 817.114 443.262 807.835 437.801C797.279 431.509 785.725 427.07 773.672 424.675C772.926 424.527 772.84 425.709 773.581 425.856Z" fill="white"/>
<path d="M825.897 452.051C828.285 449.137 829.56 445.469 829.493 441.702C829.427 437.935 828.023 434.314 825.533 431.486C825.027 430.916 824.117 431.675 824.624 432.246C826.947 434.875 828.254 438.248 828.309 441.756C828.364 445.264 827.163 448.676 824.923 451.376C824.437 451.964 825.414 452.635 825.897 452.051Z" fill="white"/>
<path d="M841.252 480.722C833.595 481.551 825.907 479.463 819.72 474.875C819.108 474.42 818.434 475.394 819.046 475.849C825.492 480.611 833.497 482.768 841.464 481.888C842.223 481.803 842.007 480.638 841.252 480.722Z" fill="white"/>
<path d="M797.077 433.067C796.388 434.387 795.382 435.516 794.149 436.351C792.916 437.186 791.495 437.702 790.014 437.852C789.254 437.927 789.47 439.092 790.225 439.018C791.861 438.844 793.43 438.273 794.794 437.353C796.158 436.433 797.276 435.194 798.051 433.742C798.136 433.611 798.167 433.453 798.139 433.3C798.111 433.147 798.026 433.01 797.901 432.918C797.772 432.829 797.613 432.795 797.458 432.823C797.304 432.851 797.167 432.939 797.077 433.067Z" fill="white"/>
<path d="M16 118C24.8366 118 32 110.837 32 102C32 93.1634 24.8366 86 16 86C7.16344 86 0 93.1634 0 102C0 110.837 7.16344 118 16 118Z" fill="#E4E4E4"/>
<path d="M819 118C827.837 118 835 110.837 835 102C835 93.1634 827.837 86 819 86C810.163 86 803 93.1634 803 102C803 110.837 810.163 118 819 118Z" fill="#E4E4E4"/>
<path d="M824 101H654.882V103H824V101Z" fill="#E4E4E4"/>
<path d="M610.378 101H454.095V103H610.378V101Z" fill="#E4E4E4"/>
<path d="M409.591 101H251.984V103H409.591V101Z" fill="#E4E4E4"/>
<path d="M207.669 101H16V103H207.669V101Z" fill="#E4E4E4"/>
<path d="M235 129.5C230.55 129.5 226.2 128.18 222.5 125.708C218.8 123.236 215.916 119.722 214.213 115.61C212.51 111.499 212.064 106.975 212.932 102.61C213.801 98.2459 215.943 94.2368 219.09 91.0901C222.237 87.9434 226.246 85.8005 230.61 84.9323C234.975 84.0642 239.499 84.5097 243.61 86.2127C247.722 87.9157 251.236 90.7996 253.708 94.4997C256.18 98.1998 257.5 102.55 257.5 107C257.493 112.965 255.121 118.684 250.902 122.903C246.684 127.121 240.965 129.493 235 129.5Z" fill="#6C63FF"/>
<path d="M230 125C225.451 125 221.004 123.651 217.222 121.124C213.44 118.597 210.492 115.004 208.751 110.802C207.01 106.599 206.554 101.974 207.442 97.5129C208.329 93.0514 210.52 88.9532 213.737 85.7366C216.953 82.52 221.051 80.3294 225.513 79.4419C229.974 78.5545 234.599 79.01 238.802 80.7508C243.004 82.4916 246.597 85.4396 249.124 89.2219C251.651 93.0042 253 97.4511 253 102C252.993 108.098 250.568 113.944 246.256 118.256C241.944 122.568 236.098 124.993 230 125ZM230 81C225.847 81 221.786 82.2316 218.333 84.5391C214.88 86.8467 212.188 90.1264 210.599 93.9637C209.009 97.8009 208.593 102.023 209.404 106.097C210.214 110.171 212.214 113.912 215.151 116.849C218.088 119.786 221.83 121.786 225.903 122.597C229.977 123.407 234.199 122.991 238.036 121.401C241.874 119.812 245.153 117.12 247.461 113.667C249.768 110.214 251 106.153 251 102C250.994 96.4324 248.779 91.0946 244.842 87.1577C240.905 83.2208 235.568 81.0063 230 81Z" fill="#3F3D56"/>
<path d="M229.5 109C229.102 109 228.721 108.842 228.439 108.561L219.939 100.061C219.8 99.9215 219.689 99.7562 219.613 99.574C219.537 99.3919 219.498 99.1966 219.498 98.9993C219.497 98.802 219.536 98.6067 219.611 98.4243C219.687 98.242 219.797 98.0764 219.937 97.9369C220.076 97.7974 220.242 97.6868 220.424 97.6114C220.607 97.536 220.802 97.4974 220.999 97.4976C221.197 97.4979 221.392 97.537 221.574 97.6129C221.756 97.6887 221.922 97.7998 222.061 97.9396L229.5 105.379L244.294 90.5851C244.575 90.3048 244.956 90.1476 245.354 90.1479C245.751 90.1483 246.132 90.3063 246.413 90.5872C246.694 90.8681 246.852 91.249 246.852 91.6463C246.853 92.0436 246.695 92.4248 246.415 92.7062L230.561 108.561C230.279 108.842 229.898 109 229.5 109Z" fill="white"/>
<path d="M437 129.5C432.55 129.5 428.2 128.18 424.5 125.708C420.8 123.236 417.916 119.722 416.213 115.61C414.51 111.499 414.064 106.975 414.932 102.61C415.801 98.2459 417.943 94.2368 421.09 91.0901C424.237 87.9434 428.246 85.8005 432.61 84.9323C436.975 84.0642 441.499 84.5097 445.61 86.2127C449.722 87.9157 453.236 90.7996 455.708 94.4997C458.18 98.1998 459.5 102.55 459.5 107C459.493 112.965 457.121 118.684 452.902 122.903C448.684 127.121 442.965 129.493 437 129.5Z" fill="#6C63FF"/>
<path d="M432 125C427.451 125 423.004 123.651 419.222 121.124C415.44 118.597 412.492 115.004 410.751 110.802C409.01 106.599 408.555 101.974 409.442 97.5129C410.329 93.0514 412.52 88.9532 415.737 85.7366C418.953 82.52 423.051 80.3294 427.513 79.4419C431.975 78.5545 436.599 79.01 440.802 80.7508C445.004 82.4916 448.597 85.4396 451.124 89.2219C453.651 93.0042 455 97.4511 455 102C454.993 108.098 452.568 113.944 448.256 118.256C443.944 122.568 438.098 124.993 432 125ZM432 81C427.847 81 423.786 82.2316 420.333 84.5391C416.88 86.8467 414.188 90.1264 412.599 93.9637C411.009 97.8009 410.593 102.023 411.404 106.097C412.214 110.171 414.214 113.912 417.151 116.849C420.088 119.786 423.829 121.786 427.903 122.597C431.977 123.407 436.199 122.991 440.036 121.401C443.874 119.812 447.153 117.12 449.461 113.667C451.768 110.214 453 106.153 453 102C452.994 96.4324 450.779 91.0946 446.842 87.1577C442.905 83.2208 437.568 81.0063 432 81Z" fill="#3F3D56"/>
<path d="M431.5 109C431.102 109 430.721 108.842 430.439 108.56L421.939 100.06C421.8 99.9213 421.689 99.756 421.613 99.5738C421.537 99.3917 421.498 99.1964 421.498 98.9991C421.497 98.8018 421.536 98.6064 421.611 98.4241C421.687 98.2418 421.797 98.0762 421.937 97.9367C422.076 97.7972 422.242 97.6866 422.424 97.6112C422.607 97.5358 422.802 97.4972 422.999 97.4974C423.197 97.4977 423.392 97.5368 423.574 97.6127C423.756 97.6885 423.922 97.7995 424.061 97.9394L431.5 105.379L446.294 90.5849C446.433 90.4452 446.598 90.3343 446.78 90.2586C446.963 90.1828 447.158 90.1437 447.355 90.1436C447.552 90.1434 447.748 90.1821 447.93 90.2574C448.112 90.3328 448.278 90.4434 448.417 90.5829C448.556 90.7223 448.667 90.8879 448.742 91.0701C448.818 91.2524 448.857 91.4477 448.856 91.6449C448.856 91.8421 448.817 92.0373 448.741 92.2194C448.666 92.4015 448.555 92.5669 448.415 92.706L432.561 108.561C432.279 108.842 431.898 109 431.5 109Z" fill="white"/>
<path d="M638 129.5C633.55 129.5 629.2 128.18 625.5 125.708C621.8 123.236 618.916 119.722 617.213 115.61C615.51 111.499 615.064 106.975 615.932 102.61C616.801 98.2459 618.943 94.2368 622.09 91.0901C625.237 87.9434 629.246 85.8005 633.61 84.9323C637.975 84.0642 642.499 84.5097 646.61 86.2127C650.722 87.9157 654.236 90.7996 656.708 94.4997C659.18 98.1998 660.5 102.55 660.5 107C660.493 112.965 658.121 118.684 653.902 122.903C649.684 127.121 643.965 129.493 638 129.5Z" fill="#F0F0F0"/>
<path d="M633 125C628.451 125 624.004 123.651 620.222 121.124C616.44 118.597 613.492 115.004 611.751 110.802C610.01 106.599 609.555 101.974 610.442 97.5129C611.329 93.0514 613.52 88.9532 616.737 85.7366C619.953 82.52 624.051 80.3294 628.513 79.4419C632.975 78.5545 637.599 79.01 641.802 80.7508C646.004 82.4916 649.597 85.4396 652.124 89.2219C654.651 93.0042 656 97.4511 656 102C655.993 108.098 653.568 113.944 649.256 118.256C644.944 122.568 639.098 124.993 633 125ZM633 81C628.847 81 624.786 82.2316 621.333 84.5391C617.88 86.8467 615.188 90.1264 613.599 93.9637C612.009 97.8009 611.593 102.023 612.404 106.097C613.214 110.171 615.214 113.912 618.151 116.849C621.088 119.786 624.829 121.786 628.903 122.597C632.977 123.407 637.199 122.991 641.036 121.401C644.874 119.812 648.153 117.12 650.461 113.667C652.768 110.214 654 106.153 654 102C653.994 96.4324 651.779 91.0946 647.842 87.1577C643.905 83.2208 638.568 81.0063 633 81Z" fill="#CACACA"/>
<path d="M618.567 218.516C614.117 218.516 609.767 217.196 606.067 214.724C602.366 212.251 599.483 208.737 597.78 204.626C596.077 200.515 595.631 195.991 596.499 191.626C597.367 187.262 599.51 183.252 602.657 180.106C605.804 176.959 609.813 174.816 614.177 173.948C618.542 173.08 623.066 173.525 627.177 175.228C631.289 176.931 634.803 179.815 637.275 183.515C639.747 187.215 641.067 191.566 641.067 196.016C641.06 201.981 638.688 207.7 634.469 211.918C630.251 216.136 624.532 218.509 618.567 218.516Z" fill="#6C63FF"/>
<path d="M617.067 203.016C616.669 203.016 616.287 202.858 616.006 202.576L607.506 194.076C607.225 193.795 607.067 193.414 607.067 193.016C607.067 192.618 607.225 192.236 607.506 191.955C607.788 191.674 608.169 191.516 608.567 191.516C608.965 191.516 609.346 191.674 609.627 191.955L617.067 199.395L631.86 184.601C632.142 184.32 632.523 184.163 632.92 184.164C633.318 184.164 633.699 184.322 633.979 184.603C634.26 184.884 634.418 185.265 634.419 185.662C634.419 186.059 634.262 186.44 633.982 186.722L618.127 202.576C617.846 202.858 617.465 203.016 617.067 203.016Z" fill="white"/>
<path d="M668.809 508.674L656.694 506.801L658.155 459.177L676.036 461.942L668.809 508.674Z" fill="#9E616A"/>
<path d="M670.083 520.896L631.017 514.855L631.093 514.361C631.717 510.328 633.917 506.709 637.21 504.298C640.502 501.887 644.617 500.883 648.65 501.506L672.511 505.196L670.083 520.896Z" fill="#2F2E41"/>
<path d="M796.146 507.474L783.898 507.996L776.056 460.999L794.134 460.229L796.146 507.474Z" fill="#9E616A"/>
<path d="M799.776 519.214L760.281 520.896L760.26 520.397C760.086 516.32 761.539 512.341 764.299 509.335C767.059 506.33 770.9 504.543 774.977 504.369L799.1 503.342L799.776 519.214Z" fill="#2F2E41"/>
<path d="M772.03 227.294C772.609 227.132 773.2 227.021 773.798 226.965L766.162 164.464L740.253 109.596C738.623 106.144 738.363 102.203 739.524 98.5671C740.686 94.9311 743.183 91.8709 746.512 90.0037C749.841 88.1365 753.755 87.6012 757.463 88.5059C761.171 89.4105 764.399 91.6878 766.494 94.8784C773.285 105.217 778.421 116.552 781.719 128.474L792.604 167.831L784.644 235.324C784.95 237.226 784.699 239.176 783.922 240.939C783.145 242.702 781.875 244.203 780.265 245.261C778.655 246.32 776.773 246.89 774.847 246.904C772.92 246.918 771.03 246.375 769.405 245.341C767.78 244.306 766.488 242.824 765.685 241.072C764.883 239.321 764.603 237.375 764.881 235.468C765.158 233.562 765.98 231.776 767.249 230.326C768.517 228.875 770.178 227.823 772.03 227.294Z" fill="#9E616A"/>
<path d="M734.149 109.48C732.277 104.386 732.47 98.7617 734.686 93.8077C736.903 88.8538 740.968 84.9623 746.014 82.9639C751.06 80.9655 756.687 81.0184 761.695 83.1112C766.702 85.204 770.694 89.1711 772.817 94.1658L789.033 132.308L756.3 169.754L734.149 109.48Z" fill="#2F2E41"/>
<path d="M709 116L731 79.0002C746.197 69.0637 758.7 75.5608 765.365 92.4503C771.173 107.166 775.681 125.784 773 145C766.994 188.046 762 193 762 193C762 193 799.5 234.5 791.5 287.5L797.5 487.5L779.5 486.5L754.5 371.5L735.5 299.5L702.5 387.5L673.5 489.5L653.5 485.5L665.5 372.5L682.5 242.5L702 193L692.5 158.5C692.5 158.5 681.5 134.5 709 116Z" fill="#2F2E41"/>
<path d="M635.893 168.844C636.297 169.288 636.66 169.768 636.978 170.278L689.481 135.521L726.991 87.8265C729.351 84.8261 732.76 82.8322 736.532 82.2468C740.304 81.6614 744.158 82.5282 747.316 84.6722C750.474 86.8163 752.701 90.0782 753.549 93.7999C754.396 97.5216 753.801 101.426 751.883 104.726C745.667 115.421 737.822 125.081 728.629 133.358L698.283 160.681L634.346 183.716C632.78 184.839 630.924 185.486 628.999 185.579C627.075 185.671 625.165 185.206 623.499 184.238C621.832 183.271 620.481 181.842 619.608 180.125C618.734 178.408 618.376 176.475 618.575 174.558C618.775 172.642 619.524 170.824 620.732 169.323C621.94 167.823 623.556 166.703 625.386 166.099C627.216 165.496 629.181 165.433 631.045 165.92C632.909 166.407 634.593 167.422 635.893 168.844Z" fill="#9E616A"/>
<path d="M724.368 82.3136C728.089 78.3625 733.206 76.022 738.629 75.7917C744.051 75.5614 749.349 77.4595 753.391 81.0809C757.434 84.7023 759.901 89.7602 760.266 95.1753C760.631 100.59 758.865 105.934 755.346 110.065L728.468 141.614L680.342 129.061L724.368 82.3136Z" fill="#2F2E41"/>
<path d="M742.231 62.203C756.638 54.3276 761.932 36.2644 754.057 21.8578C746.181 7.45109 728.118 2.15646 713.712 10.0318C699.305 17.9072 694.01 35.9704 701.886 50.3771C709.761 64.7837 727.824 70.0784 742.231 62.203Z" fill="#9E616A"/>
<path d="M723 5.82304e-10H742.204C754.794 5.82304e-10 765 11.4819 765 25.6456L764.111 60C750.508 61.6923 737.202 65.251 724.57 70.5757L722.778 62.9213L719.242 73.0021C716.098 74.5256 712.98 76.1916 709.889 78C713.497 61.0489 714.981 44.1371 712.504 31H706V23.8819L703.792 31H692C692 26.929 692.802 22.8978 694.36 19.1367C695.918 15.3757 698.201 11.9582 701.08 9.07962C703.958 6.20101 707.376 3.91756 711.137 2.35968C714.898 0.801797 718.929 -2.49508e-05 723 5.82304e-10Z" fill="#2F2E41"/>
<path d="M916.909 521H535.909C535.644 521 535.39 520.895 535.202 520.707C535.015 520.52 534.909 520.265 534.909 520C534.909 519.735 535.015 519.48 535.202 519.293C535.39 519.105 535.644 519 535.909 519H916.909C917.174 519 917.429 519.105 917.616 519.293C917.804 519.48 917.909 519.735 917.909 520C917.909 520.265 917.804 520.52 917.616 520.707C917.429 520.895 917.174 521 916.909 521Z" fill="#CACACA"/>
<path d="M230 238C229.735 238 229.48 237.895 229.293 237.707C229.105 237.52 229 237.265 229 237V125C229 124.735 229.105 124.48 229.293 124.293C229.48 124.105 229.735 124 230 124C230.265 124 230.52 124.105 230.707 124.293C230.895 124.48 231 124.735 231 125V237C231 237.265 230.895 237.52 230.707 237.707C230.52 237.895 230.265 238 230 238Z" fill="#3F3D56"/>
<path d="M159.464 255.38C157.781 255.38 156.167 256.048 154.977 257.238C153.787 258.429 153.118 260.043 153.118 261.726C153.118 263.409 153.787 265.023 154.977 266.213C156.167 267.403 157.781 268.071 159.464 268.071H300.563C302.244 268.068 303.856 267.398 305.043 266.209C306.231 265.019 306.898 263.407 306.898 261.726C306.898 260.045 306.231 258.432 305.043 257.242C303.856 256.053 302.244 255.383 300.563 255.38H159.464Z" fill="#E4E4E4"/>
<path d="M197.298 285.454C196.464 285.452 195.639 285.615 194.868 285.932C194.098 286.249 193.397 286.715 192.807 287.303C192.216 287.891 191.747 288.59 191.427 289.359C191.106 290.128 190.94 290.953 190.938 291.786C190.937 292.62 191.099 293.445 191.416 294.216C191.734 294.986 192.2 295.687 192.788 296.277C193.376 296.868 194.074 297.337 194.843 297.657C195.613 297.978 196.437 298.144 197.271 298.145H262.729C264.412 298.145 266.026 297.477 267.216 296.287C268.406 295.097 269.075 293.483 269.075 291.8C269.075 290.117 268.406 288.503 267.216 287.313C266.026 286.123 264.412 285.454 262.729 285.454H197.298Z" fill="#E4E4E4"/>
<path d="M364.464 255.38C362.781 255.38 361.167 256.048 359.977 257.238C358.787 258.429 358.118 260.043 358.118 261.726C358.118 263.409 358.787 265.023 359.977 266.213C361.167 267.403 362.781 268.071 364.464 268.071H505.563C507.244 268.068 508.856 267.398 510.043 266.209C511.231 265.019 511.898 263.407 511.898 261.726C511.898 260.045 511.231 258.432 510.043 257.242C508.856 256.053 507.244 255.383 505.563 255.38H364.464Z" fill="#E4E4E4"/>
<path d="M402.298 285.454C401.464 285.452 400.639 285.615 399.868 285.932C399.098 286.249 398.397 286.715 397.807 287.303C397.216 287.891 396.747 288.59 396.427 289.359C396.106 290.128 395.94 290.953 395.938 291.786C395.937 292.62 396.099 293.445 396.416 294.216C396.734 294.986 397.2 295.687 397.788 296.277C398.376 296.868 399.074 297.337 399.843 297.657C400.613 297.978 401.437 298.144 402.271 298.145H467.729C469.412 298.145 471.026 297.477 472.216 296.287C473.406 295.097 474.075 293.483 474.075 291.8C474.075 290.117 473.406 288.503 472.216 287.313C471.026 286.123 469.412 285.454 467.729 285.454H402.298Z" fill="#E4E4E4"/>
<path d="M435 238C434.735 238 434.48 237.895 434.293 237.707C434.105 237.52 434 237.265 434 237V125C434 124.735 434.105 124.48 434.293 124.293C434.48 124.105 434.735 124 435 124C435.265 124 435.52 124.105 435.707 124.293C435.895 124.48 436 124.735 436 125V237C436 237.265 435.895 237.52 435.707 237.707C435.52 237.895 435.265 238 435 238Z" fill="#3F3D56"/>
</g>
<defs>
<clipPath id="clip0_77_909">
<rect width="917.909" height="521" fill="white"/>
</clipPath>
</defs>
</svg>
